<?xml version="1.0" standalone="no"?>
<!DOCTYPE svg PUBLIC "-//W3C//DTD SVG 20010904//EN"
 "http://www.w3.org/TR/2001/REC-SVG-20010904/DTD/svg10.dtd">
<svg version="1.0" xmlns="http://www.w3.org/2000/svg"
 width="800.000000pt" height="800.000000pt" viewBox="0 0 800.000000 800.000000"
 preserveAspectRatio="xMidYMid meet">
<metadata>
Created by potrace 1.16, written by Peter Selinger 2001-2019
</metadata>
<g transform="translate(0.000000,800.000000) scale(0.100000,-0.100000)"
fill="#000000" stroke="none">
<path d="M3700 7239 c-935 -92 -1762 -562 -2323 -1318 -256 -345 -455 -782
-551 -1212 -52 -235 -68 -376 -71 -654 -4 -275 1 -359 35 -573 149 -937 718
-1778 1535 -2269 415 -250 884 -403 1380 -453 160 -16 591 -5 750 20 369 56
671 150 984 306 351 174 612 364 887 645 525 537 838 1213 914 1974 16 160 5
591 -20 750 -54 358 -147 662 -294 962 -175 356 -374 632 -657 909 -501 489
-1103 786 -1814 894 -110 17 -197 22 -405 25 -146 2 -303 -1 -350 -6z m-964
-2366 c-41 -110 -189 -291 -299 -365 -181 -123 -446 -198 -703 -198 -143 0
-280 39 -272 78 4 20 38 27 161 36 416 31 718 149 1022 400 83 68 102 78 91
49z m2619 -49 c304 -251 606 -369 1022 -400 123 -9 157 -16 161 -36 8 -39
-129 -78 -272 -78 -257 0 -522 75 -703 198 -82 56 -200 184 -250 273 -75 132
-71 136 42 43z m-1944 -1221 c7 -110 -65 -260 -187 -391 -114 -124 -254 -208
-409 -247 -90 -23 -272 -23 -375 -1 -98 21 -241 92 -313 156 -106 96 -197 249
-215 364 -9 55 -8 56 15 56 26 0 98 -34 208 -99 247 -145 536 -177 803 -89
108 36 223 99 358 198 53 38 101 70 105 70 5 0 9 -8 10 -17z m1293 -53 c135
-99 250 -162 358 -198 267 -88 556 -56 803 89 110 65 182 99 208 99 23 0 24
-1 15 -56 -18 -115 -109 -268 -215 -364 -72 -64 -215 -135 -313 -156 -103 -22
-285 -22 -375 1 -92 23 -202 74 -280 129 -125 90 -249 249 -295 379 -20 57
-27 147 -11 147 4 0 52 -32 105 -70z m-64 -1542 c67 -34 93 -79 88 -151 -5
-61 -23 -95 -72 -131 -27 -21 -37 -21 -655 -21 l-628 0 -37 29 c-104 79 -82
242 39 284 20 7 238 11 625 11 l596 1 44 -22z"/>
</g>
</svg>
